<svg width="24" height="24" viewBox="0 0 24 24" fill="none" xmlns="http://www.w3.org/2000/svg">
<path fill-rule="evenodd" clip-rule="evenodd" d="M7.9009 2.08902C8.43288 1.85546 9.05349 2.09733 9.28707 2.62924C9.52065 3.16116 9.27875 3.78169 8.74677 4.01524C5.44887 5.46311 3.65871 8.97185 4.19914 12.7703C4.72304 16.4525 7.63102 19.3322 11.3087 19.8122C15.147 20.3132 18.5895 18.5529 19.9787 15.2651C20.2048 14.73 20.8219 14.4795 21.3571 14.7056C21.8923 14.9316 22.1429 15.5487 21.9168 16.0838C20.1424 20.2832 15.7746 22.5167 11.0363 21.8983C6.42084 21.2958 2.77302 17.6835 2.11613 13.0666C1.4469 8.36288 3.70884 3.92945 7.9009 2.08902Z" fill="#838383"/>
</svg>
